<?xml version="1.0" standalone="no"?>
<!DOCTYPE svg PUBLIC "-//W3C//DTD SVG 1.1//EN" "http://www.w3.org/Graphics/SVG/1.1/DTD/svg11.dtd" >
<!--
2013-9-30: Created.
-->
<svg>
<metadata>
Created by iconfont
</metadata>
<defs>

<font id="iconfont" horiz-adv-x="1024" >
  <font-face
    font-family="iconfont"
    font-weight="500"
    font-stretch="normal"
    units-per-em="1024"
    ascent="896"
    descent="-128"
  />
    <missing-glyph />
    
    <glyph glyph-name="x" unicode="x" horiz-adv-x="1001"
d="M281 543q-27 -1 -53 -1h-83q-18 0 -36.5 -6t-32.5 -18.5t-23 -32t-9 -45.5v-76h912v41q0 16 -0.5 30t-0.5 18q0 13 -5 29t-17 29.5t-31.5 22.5t-49.5 9h-133v-97h-438v97zM955 310v-52q0 -23 0.5 -52t0.5 -58t-10.5 -47.5t-26 -30t-33 -16t-31.5 -4.5q-14 -1 -29.5 -0.5
t-29.5 0.5h-32l-45 128h-439l-44 -128h-29h-34q-20 0 -45 1q-25 0 -41 9.5t-25.5 23t-13.5 29.5t-4 30v167h911zM163 247q-12 0 -21 -8.5t-9 -21.5t9 -21.5t21 -8.5q13 0 22 8.5t9 21.5t-9 21.5t-22 8.5zM316 123q-8 -26 -14 -48q-5 -19 -10.5 -37t-7.5 -25t-3 -15t1 -14.5
t9.5 -10.5t21.5 -4h37h67h81h80h64h36q23 0 34 12t2 38q-5 13 -9.5 30.5t-9.5 34.5q-5 19 -11 39h-368zM336 498v228q0 11 2.5 23t10 21.5t20.5 15.5t34 6h188q31 0 51.5 -14.5t20.5 -52.5v-227h-327z" />
    

    
    <glyph glyph-name="bbgchufangdianqi" unicode="&#59016;" d="M905.775-49.492h-787.492c-31.067 0-56.249 25.188-56.249 56.259v562.6c0 31.072 25.182 56.259 56.249 56.259h787.492c31.067 0 56.249-25.188 56.249-56.259v-562.6c0-31.072-25.182-56.259-56.249-56.259zM737.027 456.848c0 31.072-25.182 56.259-56.249 56.259h-506.244c-31.067 0-56.249-25.188-56.249-56.259v-337.56c0-31.072 25.182-56.259 56.249-56.259h506.243c31.067 0 56.249 25.188 56.249 56.259v337.56zM849.526 456.848c-31.067 0-56.249-25.188-56.249-56.259s25.182-56.259 56.249-56.259 56.249 25.188 56.249 56.259-25.182 56.259-56.249 56.259zM849.526 231.809c-31.067 0-56.249-25.188-56.249-56.259s25.182-56.259 56.249-56.259 56.249 25.188 56.249 56.259c0 31.072-25.182 56.259-56.249 56.259zM652.653 288h-449.994c-15.536 0-28.125 12.596-28.125 28.131 0 15.539 12.589 28.131 28.125 28.131h28.125c0 31.073 25.182 56.259 56.249 56.259s56.249-25.188 56.249-56.259v0h168.748c0 31.072 25.182 56.259 56.249 56.259s56.249-25.188 56.249-56.259h28.125c15.531 0 28.125-12.592 28.125-28.131 0-15.533-12.594-28.131-28.125-28.131z"  horiz-adv-x="1024" />

    
    <glyph glyph-name="noun20271cc" unicode="&#58904;" d="M471.81832 447.773568 478.453827 499.120922 454.0581 495.958816 444.268679 420.223928 444.285063 420.223928 520.01176 430.013348 523.165674 454.417267 471.834704 447.757184ZM499.9414 541.850308 496.787486 517.454581 548.110264 524.09828 548.143032 524.090088 541.507525 472.742735 565.903252 475.896648 575.692673 551.631537 575.676289 551.639729ZM494.682147 501.226262 490.143788 466.099036 490.15198 466.099036 525.262821 470.629203 529.809372 505.748237 529.792988 505.76462ZM914.283739 846.739555c-6.701043 6.676467-17.539037 6.676467-24.223696 0L763.198986 719.886688 726.384211 723.147098 870.047028 866.79353c6.668275 6.676467 6.668275 17.506269 0 24.19912-6.701043 6.676467-17.539037 6.676467-24.207312 0L681.934508 727.07925l-35.856312 3.170298L102.400819 186.547595 210.600539 78.356067l634.288907 634.305291-37.216182 3.284985L914.283739 822.540435C920.960206 829.225094 920.960206 840.063088 914.283739 846.739555zM580.034424 461.773668l-40.624047-5.292021-5.251061-40.599471-108.207912-14.0001-0.016384 0 14.008292 108.216104 40.615855 5.251061 5.251061 40.632239 108.207912 14.008292 0.016384-0.04096L580.034424 461.773668z"  horiz-adv-x="1024" />

    
    <glyph glyph-name="chazikuai" unicode="&#59163;" d="M640 896c-17.6 0-32-14.4-32-32l0-216c0-44.8-27.2-83.2-64-97.6L544 864c0 17.6-14.4 32-32 32-17.6 0-32-14.4-32-32l0-313.6c-36.8 14.4-64 52.8-64 97.6L416 864c0 17.6-14.4 32-32 32-17.6 0-32-14.4-32-32l0-224c0-65.6 40-121.6 96-145.6L448-64c0-33.6 25.6-60.8 57.6-64 1.6 0 4.8 0 6.4 0 1.6 0 4.8 0 6.4 0 32 3.2 57.6 30.4 57.6 64L576 494.4c56 24 96 80 96 145.6L672 864C672 881.6 657.6 896 640 896z"  horiz-adv-x="1024" />

    
    <glyph glyph-name="shaozikuai" unicode="&#59167;" d="M512 896c-123.2 0-224-115.2-224-256 0-116.8 67.2-216 160-248L448-64c0-35.2 28.8-64 64-64 0 0 0 0 0 0 0 0 0 0 0 0 35.2 0 64 28.8 64 64L576 392c92.8 32 160 131.2 160 248C736 780.8 635.2 896 512 896z"  horiz-adv-x="1024" />

    
    <glyph glyph-name="xican" unicode="&#58946;" d="M744.41 620.252c-17.899 0-35.043-3.218-51.030-8.953-44.774 47.806-107.564 77.648-177.303 77.648-68.465 0-130.385-28.731-174.986-75.015-13.67 4.037-28.093 6.32-43.037 6.32-86.247 0-157.436-71.621-157.436-160.036 0-88.123 64.816-155.18 155.35-155.531l-1.042-212.816c0-25.513 22.358-49.093 46.976-49.093h358.197c24.733 0 45.18 27.034 45.18 52.37v174.607c-94.704 1.931-144.345 60.445-144.345 60.445s69.74-29.609 147.299-29.783c0.348 0 0.231 0 0.522 0.059 84.395 2.165 151.99 72.791 151.99 159.744 0 88.415-70.087 160.036-156.335 160.036z"  horiz-adv-x="1024" />

    
    <glyph glyph-name="icon10" unicode="&#58907;" d="M12 26.16v82.030h1000v-82.030h-1000zM934.85 151.16h-845.7c-0.98 226.56 197.26 423.83 422.85 418.94 225.59 4.89 423.83-192.38 422.85-418.94v0 0zM562.78 597.45h-101.56v61.52h-82.030l-0 82.030h265.62v-82.030h-82.030v-61.52z"  horiz-adv-x="1024" />

    
    <glyph glyph-name="user" unicode="&#58880;" d="M164.655 827.023l0 0 0 0zM866.321 126.851q0-59.804-36.377-94.437t-96.684-34.632l-435.544 0q-60.293 0-96.684 34.632t-36.377 94.437q0 26.414 1.744 51.573t6.977 54.321 13.2 54.069 21.432 48.586 30.892 40.367 42.614 26.665 55.563 9.963q4.479 0 20.931-10.717t37.131-23.916 53.819-23.916 66.531-10.717 66.531 10.717 53.819 23.916 37.131 23.916 20.931 10.717q30.405 0 55.563-9.963t42.614-26.665 30.893-40.367 21.432-48.586 13.2-54.069 6.977-54.321 1.744-51.573zM706.846 571.869q0-79.242-56.065-135.292t-135.293-56.065-135.293 56.065-56.065 135.292 56.065 135.293 135.293 56.065 135.293-56.065 56.065-135.293z"  horiz-adv-x="1024" />

    
    <glyph glyph-name="arrowdown" unicode="&#58881;" d="M930.666 572.269c0-14.331-5.512-27.677-15.529-37.657l-365.99-365.34c-1.306-1.336-2.417-2.379-3.607-3.234l-2.723-2.16c-10.703-10.653-23.296-15.887-36.627-15.887-13.571 0-26.26 5.351-35.729 15.053l-363.953 367.853c-9.813 9.951-15.222 23.238-15.222 37.401 0 13.849 5.25 26.931 14.769 36.832 9.549 9.841 22.867 15.506 36.518 15.506 13.484 0 26.259-5.365 35.969-15.134l328.283-331.846 336.964 336.081c9.666 9.607 22.296 14.915 35.619 14.915 13.958 0 27.055-5.673 36.876-15.937 9.271-9.768 14.381-22.734 14.381-36.444z"  horiz-adv-x="1024" />

    
    <glyph glyph-name="arrowleft" unicode="&#58882;" d="M700.269-34.666c-14.331 0-27.677 5.512-37.657 15.529l-365.34 365.99c-1.337 1.306-2.38 2.417-3.234 3.607l-2.16 2.723c-10.653 10.703-15.888 23.296-15.888 36.627 0 13.571 5.351 26.26 15.053 35.73l367.853 363.953c9.951 9.813 23.238 15.222 37.401 15.222 13.848 0 26.931-5.25 36.832-14.769 9.841-9.549 15.507-22.867 15.506-36.518 0-13.484-5.365-26.259-15.134-35.969l-331.846-328.283 336.081-336.964c9.607-9.666 14.915-22.296 14.915-35.619 0-13.958-5.673-27.055-15.937-36.876-9.768-9.271-22.734-14.381-36.444-14.381z"  horiz-adv-x="1024" />

    
    <glyph glyph-name="arrowright" unicode="&#58883;" d="M323.731 802.666c14.331 0 27.677-5.512 37.657-15.529l365.34-365.99c1.337-1.306 2.38-2.417 3.234-3.607l2.16-2.723c10.653-10.703 15.888-23.296 15.888-36.627 0-13.571-5.351-26.26-15.053-35.73l-367.853-363.953c-9.951-9.813-23.238-15.222-37.401-15.222-13.848 0-26.931 5.25-36.832 14.769-9.841 9.549-15.507 22.867-15.506 36.518 0 13.484 5.365 26.259 15.134 35.969l331.846 328.283-336.081 336.964c-9.607 9.666-14.915 22.296-14.915 35.619 0 13.958 5.673 27.055 15.937 36.876 9.768 9.271 22.734 14.381 36.444 14.381z"  horiz-adv-x="1024" />

    
    <glyph glyph-name="arrowleft1" unicode="&#58896;" d="M700.269-34.666c-14.331 0-27.677 5.512-37.657 15.529l-365.34 365.99c-1.337 1.306-2.38 2.417-3.234 3.607l-2.16 2.723c-10.653 10.703-15.888 23.296-15.888 36.627 0 13.571 5.351 26.26 15.053 35.73l367.853 363.953c9.951 9.813 23.238 15.222 37.401 15.222 13.848 0 26.931-5.25 36.832-14.769 9.841-9.549 15.507-22.867 15.506-36.518 0-13.484-5.365-26.259-15.134-35.969l-331.846-328.283 336.081-336.964c9.607-9.666 14.915-22.296 14.915-35.619 0-13.958-5.673-27.055-15.937-36.876-9.768-9.271-22.734-14.381-36.444-14.381z"  horiz-adv-x="1024" />

    
    <glyph glyph-name="arrowright1" unicode="&#58897;" d="M323.731 802.666c14.331 0 27.677-5.512 37.657-15.529l365.34-365.99c1.337-1.306 2.38-2.417 3.234-3.607l2.16-2.723c10.653-10.703 15.888-23.296 15.888-36.627 0-13.571-5.351-26.26-15.053-35.73l-367.853-363.953c-9.951-9.813-23.238-15.222-37.401-15.222-13.848 0-26.931 5.25-36.832 14.769-9.841 9.549-15.507 22.867-15.506 36.518 0 13.484 5.365 26.259 15.134 35.969l331.846 328.283-336.081 336.964c-9.607 9.666-14.915 22.296-14.915 35.619 0 13.958 5.673 27.055 15.937 36.876 9.768 9.271 22.734 14.381 36.444 14.381z"  horiz-adv-x="1024" />

    
    <glyph glyph-name="arrowup" unicode="&#58898;" d="M93.334 195.731c0 14.331 5.512 27.677 15.529 37.657l365.99 365.34c1.306 1.337 2.417 2.38 3.607 3.234l2.723 2.16c10.703 10.653 23.296 15.888 36.627 15.888 13.571 0 26.26-5.351 35.73-15.053l363.953-367.853c9.813-9.951 15.222-23.238 15.222-37.401 0-13.848-5.25-26.931-14.769-36.832-9.549-9.841-22.867-15.507-36.518-15.506-13.484 0-26.259 5.365-35.969 15.134l-328.283 331.846-336.964-336.081c-9.666-9.607-22.296-14.915-35.619-14.915-13.958 0-27.055 5.673-36.876 15.937-9.271 9.768-14.381 22.734-14.381 36.444z"  horiz-adv-x="1024" />

    
    <glyph glyph-name="fly" unicode="&#58912;" d="M279.493575 190.779324c-11.142781 11.100826-39.926338 12.524245-51.079352 1.423419l0-211.639165c11.151991-10.769274 39.936571-9.378601 51.079352 1.381463l91.054809 72.580039c11.023054 11.098779 11.023054 29.100782 0 40.199561L279.493575 190.779324zM337.691045 72.574155 290.264896 34.085562c-5.27412-5.094018-18.899442-5.750981-24.176632-0.653893L266.088264 141.892917c5.278213 5.254677 18.903535-6.670933 24.176632-11.92561l47.425126-49.616024C342.909907 75.095581 342.909907 77.828832 337.691045 72.574155zM927.032528 787.585825c-3.447519 0-6.568602-1.016143-9.445116-2.480494L99.517551 543.520133c-12.753465-7.407714-20.36277-20.207227-21.938662-33.875528l-0.843204-0.229221 0.691755-0.663102c-0.856507-9.003048 0.873903-18.340717 5.708002-26.767644l206.177779-165.144224 494.253824 325.94656L365.271194 283.975912c-17.072841-17.115819-17.072841-44.86379 0-61.97347l191.291744-216.882586c17.072841-17.110703 44.757367-17.110703 61.83123 0l323.119165 745.565547c4.125971 3.903913 6.77838 9.356089 6.77838 15.503089C948.292738 778.003586 938.771897 787.585825 927.032528 787.585825zM888.907209 706.4182 601.733721 61.220572c-26.992771-36.368302-18.968004-24.189935-44.185338-1.183965l-135.505183 154.202011c-28.791743 28.789697-24.814152 37.601386-5.554506 53.06559l430.278767 422.655136L281.4573 371.940336l-142.949736 106.945731c-32.344662 29.305443-9.870812 29.128411 11.633968 41.620933l717.77255 216.113059C906.423141 747.226628 898.68797 723.575975 888.907209 706.4182z"  horiz-adv-x="1024" />

    
    <glyph glyph-name="qq" unicode="&#58928;" d="M116.435 302.286c-33.54-78.964-38.985-154.297-12.059-168.37 18.572-9.696 47.686 12.382 74.936 52.909 10.791-44.157 37.493-84.137 75.633-116.21-40.004-14.768-66.135-38.886-66.135-66.232 0-44.954 70.709-81.302 157.978-81.302 78.716 0 143.907 29.538 155.94 68.371 3.232 0.049 15.663 0.049 18.796 0 12.083-38.784 77.324-68.371 155.989-68.371 87.267 0 157.978 36.398 157.978 81.302 0 27.297-26.105 51.464-66.135 66.232 38.089 32.123 64.889 72.053 75.631 116.21 27.251-40.527 56.29-62.605 74.887-52.909 26.95 14.073 21.631 89.456-12.032 168.37-26.355 62.058-62.11 107.754-89.457 117.848 0.398 3.929 0.596 7.958 0.596 11.935 0 23.968-6.661 46.146-18.049 64.196 0.199 1.393 0.199 2.834 0.199 4.227 0 11.038-2.636 21.381-7.114 30.332-6.909 161.309-111.93 289.402-281.866 289.402-170.036 0-275.106-128.093-281.943-289.402-4.525-9.001-7.135-19.343-7.135-30.332 0-1.393 0.099-2.835 0.15-4.227-11.288-18.05-17.951-40.178-17.951-64.196 0-3.978 0.15-7.955 0.498-11.935-27.151-10.094-63.028-55.841-89.333-117.848z"  horiz-adv-x="1024" />

    
    <glyph glyph-name="weixin" unicode="&#58943;" d="M693.12 548.736c11.776 0 23.36-0.896 35.008-2.176-31.36 146.048-187.456 254.528-365.696 254.528C163.2 801.088 0 665.344 0 492.864c0-99.52 54.272-181.248 145.024-244.736L108.8 139.136l126.72 63.488c45.312-8.896 81.664-18.112 126.912-18.112 11.392 0 22.656 0.512 33.792 1.344-7.04 24.256-11.2 49.6-11.2 76.032C385.088 420.224 521.024 548.736 693.12 548.736zM498.304 646.976c27.392 0 45.376-17.984 45.376-45.248 0-27.136-17.984-45.312-45.376-45.312-27.072 0-54.336 18.176-54.336 45.312C443.968 629.056 471.168 646.976 498.304 646.976zM244.672 556.416c-27.2 0-54.592 18.176-54.592 45.312 0 27.264 27.392 45.248 54.592 45.248S289.92 629.056 289.92 601.728C289.92 574.592 271.872 556.416 244.672 556.416zM1024 266.24c0 144.896-145.024 262.976-307.904 262.976-172.48 0-308.224-118.144-308.224-262.976 0-145.28 135.808-262.976 308.224-262.976 36.096 0 72.512 9.024 108.736 18.112l99.392-54.528-27.264 90.624C969.728 112.128 1024 184.512 1024 266.24zM616.128 311.616c-17.984 0-36.224 17.92-36.224 36.224 0 18.048 18.24 36.224 36.224 36.224 27.52 0 45.376-18.176 45.376-36.224C661.504 329.536 643.648 311.616 616.128 311.616zM815.488 311.616c-17.856 0-36.032 17.92-36.032 36.224 0 18.048 18.112 36.224 36.032 36.224 27.264 0 45.376-18.176 45.376-36.224C860.864 329.536 842.752 311.616 815.488 311.616z"  horiz-adv-x="1024" />

    
    <glyph glyph-name="zan1" unicode="&#58944;" d="M868.354104 328.881658c56.047504 0 84.071767 168.143535 0 168.143535L700.206476 497.025193c168.147628 280.242635 46.413076 336.290139 0 336.290139 0-142.373615-209.370495-301.023938-420.36293-364.314403L279.843546 20.619876l-56.047504 0L223.796042 469.006046l56.047504 0 0 28.02938L167.749562 497.035426c-30.828123 0-56.047504-37.83777-56.047504-84.076884l0-336.291163c0-46.239114 25.219381-84.070744 56.047504-84.070744l112.095008 0 0 28.018124c238.850923-24.823362 155.578358-84.070744 392.338666-84.070744 56.047504 0 112.095008 28.02324 112.095008 84.070744 56.05262 0 84.076884 140.119271 56.05262 140.119271C896.378367 160.73403 932.281065 328.881658 868.354104 328.881658L868.354104 328.881658zM868.354104 328.881658"  horiz-adv-x="1024" />

    
    <glyph glyph-name="chufangtiaowei-dangqiantai" unicode="&#59288;" d="M840.751 543.505L649.928 743.452c-28.103 29.449-74.758 30.538-104.207 2.434l-173.286-165.38c-34.368-32.8-49.413-78.234-44.822-122.09a36.79 36.79 0 0 1-10.322-6.95l-93.31-89.051c-14.722-14.052-15.268-37.379-1.216-52.102l165.38-173.288c14.052-14.724 37.379-15.268 52.103-1.218l93.308 89.051a36.77 36.77 0 0 1 7.424 9.987c43.595-6.633 89.681 6.275 124.049 39.074L838.317 439.3c29.448 28.103 30.537 74.758 2.434 104.205zM468.732 276.258l-39.988-38.166c-7.363-7.024-19.027-6.753-26.051 0.608L288.198 358.669c-7.026 7.361-6.753 19.025 0.608 26.053l39.99 38.164c7.361 7.026 19.025 6.753 26.051-0.61l114.494-119.967c7.025-7.363 6.754-19.027-0.609-26.051zM781.726 516.14L621.769 363.484c-44.171-42.155-114.153-40.521-156.308 3.65l-63.607 66.649c-42.157 44.171-40.523 114.151 3.648 156.307l159.959 152.658c7.361 7.026 19.025 6.753 26.051-0.608l190.822-199.947c7.026-7.363 6.754-19.025-0.608-26.053zM183.949 74.202c-10.189 0-18.449-8.259-18.449-18.449 0-10.189 8.259-18.447 18.449-18.447 10.189 0 18.449 8.258 18.449 18.447-0.001 10.19-8.26 18.449-18.449 18.449z m55.345 147.591c0 10.187-8.259 18.449-18.449 18.449-10.189 0-18.449-8.261-18.449-18.449 0-10.191 8.259-18.449 18.449-18.449 10.19 0.001 18.449 8.258 18.449 18.449z m0-92.245c-10.189 0-18.449-8.259-18.449-18.449 0-10.187 8.259-18.449 18.449-18.449 10.189 0 18.449 8.261 18.449 18.449 0 10.19-8.259 18.449-18.449 18.449z m36.898-92.241c-10.189 0-18.449-8.261-18.449-18.449 0-10.191 8.259-18.451 18.449-18.451 10.189 0 18.449 8.259 18.449 18.451-0.001 10.188-8.26 18.449-18.449 18.449z m564.795 506.71L649.931 744.209c-28.138 29.485-74.85 30.575-104.334 2.437l-33.364-31.842 0.445-0.408c-6.74-5.047-11.102-13.097-11.102-22.165 0-15.283 12.39-27.673 27.673-27.673 9.928 0 18.63 5.231 23.513 13.085l0.357-0.327 30.691 29.291c7.37 7.034 19.048 6.761 26.083-0.609l191.056-200.192c6.923-7.255 6.753-18.67-0.279-25.734H609.267c-10.189 0-18.449-8.259-18.449-18.449 0-10.189 8.259-18.449 18.449-18.449h152.776L640.187 326.878c-44.218-42.2-114.269-40.571-156.478 3.631l-63.757 66.805c-12.783 13.412-21.53 29.199-26.292 45.86h48.57c10.189 0 18.449 8.259 18.449 18.449 0 10.189-8.259 18.449-18.449 18.449h-52.651c1.556 27.018 12.955 53.531 34.077 73.689l64.148 61.22a27.858 27.858 0 0 1 4.19 3.998l2.099 2.004-0.333 0.305a27.533 27.533 0 0 1 4.815 15.597c0 15.285-12.39 27.673-27.673 27.673a27.557 27.557 0 0 1-17.517-6.251l-0.179 0.164-81.108-77.407c-34.41-32.841-49.473-78.329-44.877-122.24a36.825 36.825 0 0 1-10.334-6.958l-93.424-89.16c-14.74-14.069-15.287-37.425-1.218-52.165l165.582-173.5c14.069-14.742 37.425-15.287 52.167-1.219l93.422 89.16a36.816 36.816 0 0 1 7.433 9.999c43.648-6.641 89.791 6.282 124.201 39.122l173.5 165.582c29.485 28.137 30.575 74.849 2.437 104.332zM468.513 239.546l-40.037-38.213c-7.372-7.034-19.05-6.761-26.083 0.609l26.691 25.474c7.37 7.036 7.643 18.714 0.609 26.085-7.034 7.37-18.712 7.643-26.083 0.609l-26.693-25.474-25.474 26.692 40.039 38.21c7.37 7.034 7.643 18.712 0.609 26.084-7.034 7.37-18.712 7.643-26.085 0.609l-40.037-38.211-12.737 13.346 26.691 25.474c7.372 7.034 7.645 18.712 0.609 26.083-7.034 7.37-18.712 7.645-26.083 0.609l-26.692-25.474c-7.034 7.37-6.761 19.048 0.609 26.083l40.039 38.213c7.37 7.034 19.048 6.761 26.083-0.611l114.634-120.115c7.034-7.371 6.763-19.049-0.609-26.082z m-155.424-73.101c-10.189 0-18.449-8.259-18.449-18.449 0-10.187 8.259-18.449 18.449-18.449 10.189 0 18.449 8.261 18.449 18.449 0 10.19-8.26 18.449-18.449 18.449z m202.935 276.73c10.189 0 18.449 8.259 18.449 18.449 0 10.189-8.259 18.449-18.449 18.449-10.189 0-18.449-8.259-18.449-18.449 0-10.19 8.26-18.449 18.449-18.449zM368.435 92.651c-10.189 0-18.449-8.259-18.449-18.449 0-10.189 8.259-18.449 18.449-18.449 10.189 0 18.449 8.259 18.449 18.449 0 10.19-8.26 18.449-18.449 18.449z"  horiz-adv-x="1024" />

    
    <glyph glyph-name="youfanye" unicode="&#58962;" d="M345.074373-128a43.326921 43.326921 0 0 1 35.325883 18.168422l333.790597 468.075168a43.326921 43.326921 0 0 1 0.028885 50.288113L380.42914 877.762255A43.326921 43.326921 0 0 1 309.777375 827.531911l315.939906-444.100938L309.806259-59.514581a43.38469 43.38469 0 0 1 35.268114-68.485419z"  horiz-adv-x="1024" />

    
    <glyph glyph-name="bird" unicode="&#59225;" d="M934.517 651.18c-31.175-13.84-64.556-23.083-99.685-27.312 35.817 21.472 63.359 55.497 76.327 96.006-44.389-26.721-97.231-44.052-153.77-47.937 11.875 39.569-33.232 60.581-83.167 60.581-95.868 0-173.528-77.66-173.528-173.481 0-13.656 1.517-26.853 4.459-39.59-144.239 7.266-272.201 76.327-357.772 181.392-14.989-25.656-23.541-55.498-23.541-87.271 0-60.279 30.668-113.341 77.246-144.515-30.315 1.001-58.412 9.644-82.686 24.049l4.061-4.462c0-84.144 59.82-154.264 139.229-170.264-14.53-3.954-29.887-6.024-45.75-6.024-11.558 0.003-22.855 1.109-33.795 3.22 23.219-69.155 87.361-119.273 163.274-120.699-59.359-46.487-134.17-74.258-215.554-74.258-0.015-0-0.032-0-0.049-0-14.566 0-28.925 0.885-43.027 2.605 78.527-49.459 169.705-78.196 267.78-78.196 319.241 0 493.828 264.479 493.828 493.919 0 7.448-0.139 14.989-0.507 22.438 33.933 24.415 63.36 54.946 86.627 89.799zM671.711 539.821c-24.437 0-44.248 19.81-44.248 44.247 0 24.438 19.812 44.249 44.248 44.249 24.438 0 44.248-19.811 44.248-44.249 0-24.437-19.811-44.247-44.248-44.247z"  horiz-adv-x="1024" />

    
    <glyph glyph-name="Bc_iconfont_1" unicode="&#58884;" d="M599.506 568.307h91.56c10.185 0 18.589 9.097 18.589 20.171 0 10.976-8.404 20.072-18.589 20.072h-91.56c-10.283 0-18.589-9.097-18.589-20.073 0-11.075 8.305-20.171 18.589-20.171zM599.506 324.129h91.56c10.185 0 18.589 8.948 18.589 20.022 0 11.123-8.404 20.072-18.589 20.072h-91.56c-10.283 0-18.589-8.948-18.589-20.072 0-11.075 8.305-20.022 18.589-20.022zM620.32 486.338c-10.234 0-18.589-8.948-18.589-20.072s8.355-20.171 18.589-20.171h49.785c10.283 0 18.54 9.048 18.54 20.171s-8.257 20.072-18.54 20.072h-49.785zM883.926 597.426c-9.937 10.58-22.297 18.638-36.387 22.692l8.85 78.657h0.099v0.495c0.742 7.417-2.818 15.128-8.948 19.034-29.861 19.676-62.54 35.249-97.097 45.632-33.569 10.086-68.868 15.574-105.156 15.574-36.436 0-71.685-5.488-105.205-15.574-34.113-10.234-66.495-25.609-96.208-44.99-6.625-3.659-9.987-10.728-9.987-18.293l0.099-1.533v-0.396l48.4-435.108c-8.8-1.631-17.056-4.697-24.571-9.146v149.7c0 11.123-8.405 20.072-18.589 20.072h-120.333v156.028c0 10.926-8.355 20.022-18.638 20.022h-70.153c-10.283 0-18.589-9.097-18.589-20.022v-156.077h-13.745c-10.234 0-18.589-8.948-18.589-20.072v-33.965c-14.683-3.806-27.834-11.964-38.215-23.237-14.585-15.722-23.681-37.425-23.681-61.206v-79.695c0-10.976 8.305-20.022 18.54-20.022 10.283 0 18.638 9.097 18.638 20.022v79.695c0 12.756 4.943 24.422 12.755 32.876 3.461 3.806 7.515 6.97 11.915 9.246v-134.769c-14.831-3.758-28.179-12.014-38.611-23.384-14.633-15.721-23.78-37.623-23.78-61.65v-86.072h0.148c0-18.243 13.843-33.272 30.899-33.272l696.786-0.148c17.106 0 31.047 15.029 31.047 33.569v155.483c0 23.928-9.196 45.879-23.78 61.6-11.618 12.508-26.697 21.456-43.703 24.472l5.043 45.236h14.139c21.407 0 41.182 9.294 55.718 24.323l1.088 1.236c14.534 15.623 23.681 37.425 23.681 61.254v140.406c-0.050 23.731-9.196 45.533-23.879 61.304zM550.117 725.373c30.207 9.196 62.094 13.991 95.168 13.991 32.976 0 64.912-4.795 95.268-13.991 4.153-1.236 8.355-2.67 12.558-4.153h-215.651c4.153 1.483 8.405 2.918 12.656 4.153zM248.691 560.1h32.976v-135.907h-32.976v135.907zM216.407 384.148h204.231v-174.32c-1.779-4.549-3.115-9.394-4.103-14.485h-200.127v188.806zM838.343 196.925v-170.364h-691.99v73.367c0 7.762 4.549 29.763 8.257 34.805 3.757 5.339 10.283 15.474 29.861 21.654h259.207c17.896-2.027 25.856 4.697 27.685 18.688v21.852c0 7.564 2.273 14.931 6.032 20.072 3.758 5.043 8.997 8.405 14.683 8.405h325.503c5.686 0 10.877-3.362 14.485-8.405 3.856-5.29 6.279-12.508 6.279-20.073zM808.828 605.336l-0.148-0.396-0.098-0.444-37.821-339.692h-251.148l-46.324 416.371h343.794l-8.257-75.839zM870.577 395.717c0-12.756-4.993-24.62-12.953-33.025l-0.692-0.89c-7.713-7.959-18.193-12.706-29.712-12.706h-9.64l25.559 230.284c5.488-2.373 10.432-5.933 14.485-10.332 7.959-8.405 12.953-20.171 12.953-32.927v-140.406z"  horiz-adv-x="1025" />

    
    <glyph glyph-name="location_fill" unicode="&#58891;" d="M512 832c-194.08 0-352-157.92-352-352 0-187.36 315.424-520.032 328.832-534.08C494.88-60.448 503.264-64 512-64h0.704c8.992 0 17.472 4.192 23.392 10.944l109.216 125.12C790.432 249.824 864 387.072 864 480c0 194.08-157.92 352-352 352z m0-512c-88.384 0-160 71.616-160 160s71.616 160 160 160 160-71.616 160-160-71.616-160-160-160z"  horiz-adv-x="1024" />

    
    <glyph glyph-name="chufang" unicode="&#59524;" d="M278.4 303.722667a21.333333 21.333333 0 0 1-15.829333 21.952 170.666667 170.666667 0 1 0 73.386666 333.12 21.333333 21.333333 0 0 1 22.293334 7.466666C396.330667 715.008 454.528 746.666667 512 746.666667c59.285333 0 124.202667-33.28 160.896-80.362667a21.333333 21.333333 0 0 1 21.354667-7.786667 170.666667 170.666667 0 0 0 74.88-332.842666 21.546667 21.546667 0 0 1-2.261334-0.746667 21.333333 21.333333 0 0 1-17.344-21.12l1.621334-244.544c0-0.533333 0.021333-1.066667 0.064-1.578667v-0.106666c0-22.016-15.850667-36.245333-40.832-36.245334h-0.021334v0.021334h-3.285333L704.213333 21.333333H323.114667l-3.264 0.021334h-0.768A42.624 42.624 0 0 0 277.333333 64c0 23.488 19.2 42.666667 42.624 42.666667h336.917334v42.666666H319.957333A85.44 85.44 0 0 1 234.666667 64c0-47.061333 38.122667-85.333333 85.141333-85.333333H707.008a2502.805333 2502.805333 0 0 0 3.370667 0c47.573333 0 83.498667 32.213333 83.498666 78.933333a21.632 21.632 0 0 1-0.064 1.941333l-1.514666 228.522667A213.44 213.44 0 0 1 938.666667 490.666667c0 117.824-95.509333 213.333333-213.333334 213.333333-9.045333 0-18.005333-0.554667-26.88-1.685333C653.013333 754.24 580.522667 789.333333 512 789.333333c-67.285333 0-133.546667-33.984-179.285333-86.933333A215.253333 215.253333 0 0 1 306.410667 704c-117.824 0-213.333333-95.509333-213.333334-213.333333 0-92.288 59.093333-172.8 144.256-201.898667l-0.725333-60.416 42.666667-0.533333 0.917333 75.882666-1.770667 0.021334z"  horiz-adv-x="1024" />

    
    <glyph glyph-name="sousuo" unicode="&#58887;" d="M961.174588-25.178353L918.588235-67.764706l-265.065411 265.065412A359.634824 359.634824 0 0 0 421.647059 112.941176C222.057412 112.941176 60.235294 274.763294 60.235294 474.352941S222.057412 835.764706 421.647059 835.764706s361.411765-161.822118 361.411765-361.411765c0-89.6-32.798118-171.429647-86.799059-234.586353l264.914823-264.944941zM722.823529 474.352941c0 166.339765-134.836706 301.176471-301.17647 301.176471S120.470588 640.692706 120.470588 474.352941s134.836706-301.176471 301.176471-301.17647 301.176471 134.836706 301.17647 301.17647z"  horiz-adv-x="1024" />

    
    <glyph glyph-name="weibo" unicode="&#58940;" d="M696.243 391.806c-29.77 5.574-15.301 21.042-15.301 21.042s29.131 46.336-5.766 80.027c-43.241 41.727-148.322-5.307-148.322-5.307-40.13-12.02-29.492 5.484-23.82 35.278 0 35.105-12.454 94.513-119.362 59.423-106.806-35.279-198.506-158.891-198.506-158.891-63.77-82.139-55.327-145.628-55.327-145.628C145.77 137.6 300.048 99.13 420.042 90.024c126.245-9.554 296.626 41.998 348.297 147.933 51.659 106.106-42.225 148.098-72.096 153.849zM429.383 129.55c-125.325-5.658-226.641 55.005-226.641 135.733 0 80.812 101.316 145.62 226.64 151.198 125.415 5.574 226.926-44.301 226.926-124.953 0-80.715-101.511-156.491-226.926-161.978z m-24.999 233.697C278.33 349.01 292.899 235.044 292.899 235.044s-1.293-36.086 33.795-54.466c73.754-38.556 149.69-15.215 188.073 32.608 38.38 47.843 15.848 164.203-110.383 150.062z m-31.794-159.95c-23.536-2.663-42.498 10.43-42.498 29.441 0 18.917 16.848 38.737 40.39 41.105 27.037 2.484 44.627-12.55 44.627-31.559 0-18.916-19.074-36.417-42.52-38.987z m74.303 61.096c-7.973-5.755-17.785-4.956-21.99 1.945-4.394 6.723-2.748 17.511 5.313 23.172 9.346 6.707 19.056 4.782 23.265-1.956 4.22-6.89 1.202-17.236-6.588-23.161zM757.624 441.15c10.155 0 18.79 7.25 20.24 16.711a7.878 7.878 0 0 1 0.274 2.118c15.393 133.607-113.416 110.61-113.416 110.61-11.433 0-20.605-8.93-20.605-20.067 0-10.964 9.172-19.893 20.605-19.893 92.523 19.708 72.106-69.591 72.106-69.591 0-11.046 9.325-19.888 20.796-19.888z m-15.017 233.194c-44.533 10.064-90.338 1.392-103.17-0.983-0.994-0.087-1.921-0.993-2.834-1.17-0.448-0.087-0.723-0.528-0.723-0.528-12.645-3.456-21.9-14.756-21.9-28.114 0-15.923 13.367-29.012 30.044-29.012 0 0 16.218 2.093 27.21 6.248 10.895 4.24 103.144 3.157 148.958-71.112 25.002-54.202 10.993-90.473 9.242-96.301 0 0-5.946-14.09-5.946-27.95 0-16.007 13.378-26.068 29.94-26.068 13.847 0 25.482 1.826 28.878 24.432h0.18c49.191 158.25-60.189 232.606-139.879 250.558z"  horiz-adv-x="1024" />

    
    <glyph glyph-name="chufang1" unicode="&#59076;" d="M867.096774 537.6h-710.193548l3.303226 23.122581c11.56129 95.793548 92.490323 168.464516 188.283871 168.464516h57.806451c9.909677 52.851613 54.503226 90.83871 107.354839 90.838709 54.503226 0 99.096774-39.63871 107.354839-90.838709h56.154838c95.793548 0 176.722581-72.670968 188.283871-168.464516l1.651613-23.122581z m-663.948387 41.290323h616.051613c-18.167742 64.412903-75.974194 109.006452-143.690323 109.006451h-95.793548v19.819355c0 41.290323-31.380645 71.019355-67.716129 71.019355s-67.716129-31.380645-67.716129-67.716129v-19.819355l-19.819355-3.303226h-75.974193c-69.367742 0-127.174194-44.593548-145.341936-109.006451zM768-42.116129h-513.651613c-77.625806 0-97.445161 34.683871-97.445161 112.309677v323.716129h-6.606452c-51.2 0-92.490323 41.290323-92.490322 92.490323 0 51.2 41.290323 92.490323 92.490322 92.490323h721.754839c51.2 0 92.490323-41.290323 92.490322-92.490323 0-51.2-41.290323-92.490323-92.490322-92.490323h-6.606452v-323.716129c0-77.625806-19.819355-112.309677-97.445161-112.309677z m-668.903226 528.516129c0-28.077419 23.122581-52.851613 52.851613-52.851613h47.896774v-365.006452c0-54.503226 1.651613-71.019355 56.154839-71.019354h513.651613c54.503226 0 56.154839 16.516129 56.154839 71.019354v365.006452h47.896774c28.077419 0 52.851613 23.122581 52.851613 52.851613 0 28.077419-23.122581 52.851613-52.851613 52.851613h-721.754839c-29.729032-1.651613-52.851613-24.774194-52.851613-52.851613z"  horiz-adv-x="1024" />

    
    <glyph glyph-name="youfanye1" unicode="&#58886;" d="M678.9256270000001 895.9999999999999a43.326921 43.326921 0 0 1-35.325883-18.168421999999985l-333.79059700000016-468.07516799999996a43.326921 43.326921 0 0 1-0.02888500000001315-50.28811300000001L643.5708599999998-109.76225499999998A43.326921 43.326921 0 0 1 714.2226249999998-59.531911000000036l-315.93990599999984 444.10093800000004L714.193741 827.5145809999998a43.38469 43.38469 0 0 1-35.26811399999997 68.485419z"  horiz-adv-x="1024" />

    
    <glyph glyph-name="icon" unicode="&#58894;" d="M511.67232 845.11232l501.67808-435.23072h-125.696L505.728 738.02752 133.53984 409.8816H10.24L511.67232 845.11232zM138.1376-92.76927999999998h337.67424v88.42752H219.61728V447.1552L138.1376 381.91616v-474.68544z m407.26528 0h337.48992v472.30464l-83.90656 67.62496v-454.07232l-253.57824 2.57536v-88.43264zM498.14016 443.68896l5.3504-108.42112c-4.87424-6.99904-6.83008 1.9712-6.83008 1.9712l-10.624 105.50784c-3.00544 6.13376-3.95264-0.48128-3.95264-0.48128l3.95264-106.52672c-3.38432-11.32544-6.85568-0.47616-6.85568-0.47616l-8.72448 109.3632c-1.024 3.3024-2.92352 0-2.92352 0l1.89952-107.39712c-5.2736-15.104-6.45632 0.86016-6.45632 0.86016l-8.03328 104.64768c-1.95584 4.23936-4.4032 0-4.4032 0v-131.08224c1.9712-17.85856 5.83168-22.10816 5.83168-22.10816 13.76768-11.17184 17.61792-21.4016 18.64192-27.29984v-181.82144c0-5.03808 3.9424-9.12896 8.73984-9.12896s8.73472 4.09088 8.73472 9.12896v183.94112c3.30752 8.97024 12.42624 19.51744 12.42624 19.51744 3.53792 3.93216 9.28768 18.08896 9.28768 18.08896l0.93696 27.22816-11.63776 113.53088c-5.82656 9.37984-5.36064 0.95744-5.36064 0.95744zM414.90944 267.84256000000005h-0.7936V447.232l-20.93056-16.128-13.2096-18.41152v-109.05088s15.89248 2.67776 16.128-35.79392h-1.64864c-2.59584 0-4.72576-2.04288-4.72576-4.56704v-180.09088c0-2.51904 2.12992-4.56192 4.72576-4.56192h20.4544c2.5856 0 4.7872 2.03776 4.7872 4.56192v180.09088c-0.00512 2.51904-2.2016 4.56192-4.7872 4.56192zM583.03488 447.232c-25.48224 0-46.1824-30.208-46.1824-67.4304 0-27.06432 11.01312-50.432 26.8288-61.20448 10.31168-13.696 14.56128-50.90304 14.56128-50.90304v-180.72064c0-4.64896 3.21536-8.34048 7.23968-8.34048 4.01408 0 7.30624 3.69152 7.30624 8.34048v184.4224c0 16.44032 10.4704 43.58656 12.9792 49.72032 14.01344 11.5712 23.45472 33.52064 23.45472 58.69056 0 37.21216-20.61312 67.42528-46.18752 67.42528z"  horiz-adv-x="1024" />

    
    <glyph glyph-name="iconjia" unicode="&#58885;" d="M902.3434168395388 325.0641317984599h-331.7799727632157v-331.8328909365038c0-32.33699770347935-26.226446372843796-58.53748421772893-58.56444253242294-58.53748421772893-32.33699770347935 0-58.56344407632318 26.200486514249597-58.56344407632318 58.53748421772893v331.8328909365038h-331.7819696754152c-32.36395601817335 0-58.56344407632318 26.200486514249597-58.56344407632318 58.53748421772893 0 32.32501623028203 26.20248342644915 58.53748421772893 58.56344407632318 58.53748421772893h331.7799727632157v331.8328909365038c0 32.32501623028203 26.226446372843796 58.53748421772893 58.56344407632318 58.53748421772893 32.33799615957912 0 58.56444253242294-26.213466443546704 58.56444253242294-58.53748421772893v-331.8338893926036h331.7799727632157c32.36395601817335 0 58.56444253242294-26.21146953134715 58.56444253242294-58.535487305529394-0.0009984560997770514-32.33699770347935-26.200486514249597-58.535487305529394-58.56444253242294-58.535487305529394z"  horiz-adv-x="1024" />

    


  </font>
</defs>
</svg>
